<?xml version="1.0" encoding="iso-8859-1"?>
<!-- Generator: Adobe Illustrator 16.0.0, SVG Export Plug-In . SVG Version: 6.00 Build 0)  -->
<!DOCTYPE svg PUBLIC "-//W3C//DTD SVG 1.1//EN" "http://www.w3.org/Graphics/SVG/1.1/DTD/svg11.dtd">
<svg version="1.1" id="Capa_1" xmlns="http://www.w3.org/2000/svg" xmlns:xlink="http://www.w3.org/1999/xlink" x="0px" y="0px"
	 width="514.08px" height="514.08px" viewBox="0 0 514.08 514.08" style="enable-background:new 0 0 514.08 514.08;"
	 xml:space="preserve">
<g>
	<g>
		<path d="M225.216,298.656h20.808c3.672,0,6.12-2.448,6.12-6.12V263.16c0-3.672-2.448-6.12-6.12-6.12h-20.808
			c-3.672,0-6.12,2.448-6.12,6.12v29.376C219.096,294.984,221.544,298.656,225.216,298.656z"/>
		<path d="M268.056,298.656h20.809c3.672,0,6.12-2.448,6.12-6.12V263.16c0-3.672-2.448-6.12-6.12-6.12h-20.809
			c-3.672,0-6.119,2.448-6.119,6.12v29.376C261.937,294.984,264.384,298.656,268.056,298.656z"/>
		<path d="M225.216,243.576h20.808c3.672,0,6.12-2.448,6.12-6.12V208.08c0-3.672-2.448-6.12-6.12-6.12h-20.808
			c-3.672,0-6.12,2.448-6.12,6.12v29.376C219.096,241.128,221.544,243.576,225.216,243.576z"/>
		<path d="M268.056,243.576h20.809c3.672,0,6.12-2.448,6.12-6.12V208.08c0-3.672-2.448-6.12-6.12-6.12h-20.809
			c-3.672,0-6.119,2.448-6.119,6.12v29.376C261.937,241.128,264.384,243.576,268.056,243.576z"/>
		<path d="M80.784,362.304H59.976c-3.672,0-6.12,2.448-6.12,6.12V397.8c0,3.672,2.448,6.12,6.12,6.12h20.808
			c3.672,0,6.12-2.448,6.12-6.12v-29.376C86.904,364.752,84.456,362.304,80.784,362.304z"/>
		<path d="M80.784,418.608H59.976c-3.672,0-6.12,2.447-6.12,6.119v28.152c0,3.672,2.448,6.12,6.12,6.12h20.808
			c3.672,0,6.12-2.448,6.12-6.12v-29.376C86.904,421.056,84.456,418.608,80.784,418.608z"/>
		<path d="M124.848,362.304H104.04c-3.672,0-6.12,2.448-6.12,6.12V397.8c0,3.672,2.448,6.12,6.12,6.12h20.808
			c3.672,0,6.12-2.448,6.12-6.12v-29.376C130.968,364.752,128.52,362.304,124.848,362.304z"/>
		<path d="M124.848,418.608H104.04c-3.672,0-6.12,2.447-6.12,6.119v28.152c0,3.672,2.448,6.12,6.12,6.12h20.808
			c3.672,0,6.12-2.448,6.12-6.12v-29.376C130.968,421.056,128.52,418.608,124.848,418.608z"/>
		<path d="M80.784,308.448H59.976c-3.672,0-6.12,2.448-6.12,6.12v28.151c0,3.672,2.448,6.12,6.12,6.12h20.808
			c3.672,0,6.12-2.448,6.12-6.12v-29.376C86.904,310.896,84.456,308.448,80.784,308.448z"/>
		<path d="M124.848,308.448H104.04c-3.672,0-6.12,2.448-6.12,6.12v28.151c0,3.672,2.448,6.12,6.12,6.12h20.808
			c3.672,0,6.12-2.448,6.12-6.12v-29.376C130.968,310.896,128.52,308.448,124.848,308.448z"/>
		<path d="M389.232,402.696h20.808c3.672,0,6.12-2.448,6.12-6.12V367.2c0-3.672-2.448-6.12-6.12-6.12h-20.808
			c-3.673,0-6.12,2.448-6.12,6.12v29.376C383.112,400.248,385.56,402.696,389.232,402.696z"/>
		<path d="M389.232,459h20.808c3.672,0,6.12-2.448,6.12-6.12v-29.376c0-3.672-2.448-6.12-6.12-6.12h-20.808
			c-3.673,0-6.12,2.448-6.12,6.12v29.376C383.112,456.552,385.56,459,389.232,459z"/>
		<path d="M433.296,402.696h20.809c3.672,0,6.119-2.448,6.119-6.12V367.2c0-3.672-2.447-6.12-6.119-6.12h-20.809
			c-3.672,0-6.12,2.448-6.12,6.12v29.376C427.176,400.248,429.624,402.696,433.296,402.696z"/>
		<path d="M433.296,459h20.809c3.672,0,6.119-2.448,6.119-6.12v-29.376c0-3.672-2.447-6.12-6.119-6.12h-20.809
			c-3.672,0-6.12,2.448-6.12,6.12v29.376C427.176,456.552,429.624,459,433.296,459z"/>
		<path d="M389.232,348.84h20.808c3.672,0,6.12-2.448,6.12-6.12v-29.376c0-3.672-2.448-6.12-6.12-6.12h-20.808
			c-3.673,0-6.12,2.448-6.12,6.12v29.376C383.112,346.392,385.56,348.84,389.232,348.84z"/>
		<path d="M433.296,348.84h20.809c3.672,0,6.119-2.448,6.119-6.12v-29.376c0-3.672-2.447-6.12-6.119-6.12h-20.809
			c-3.672,0-6.12,2.448-6.12,6.12v29.376C427.176,346.392,429.624,348.84,433.296,348.84z"/>
		<path d="M509.184,217.872c-3.672-3.672-8.567-4.896-13.464-4.896H367.2v-31.824c0-6.12-3.672-12.24-8.568-14.688L275.4,110.16
			V93.024h59.976c9.792,0,18.36-8.568,18.36-18.36V33.048c0-9.792-8.568-18.36-18.36-18.36h-61.2
			c-2.448-7.344-9.792-12.24-17.136-12.24c-9.792,0-18.36,8.568-18.36,18.36v12.24V73.44v36.72l-83.232,55.08
			c-4.896,3.672-8.568,8.568-8.568,14.688v31.824H18.36C8.568,212.976,0,220.32,0,231.336v39.168l0,0v222.769
			c0,9.792,8.568,18.359,18.36,18.359h477.36c9.792,0,18.36-8.567,18.36-18.359V270.504l0,0v-39.168
			C514.08,226.44,511.632,221.544,509.184,217.872z M183.6,190.944l73.44-48.96l73.44,48.96v40.392v39.168l0,0l0,0v204.408h-23.257
			v-85.68c0-28.152-23.256-50.185-50.184-50.185c-26.928,0-50.184,23.256-50.184,50.185v85.68H183.6V270.504V190.944z
			 M36.72,288.864h110.16v186.048H36.72V288.864z M477.36,474.912H367.2V288.864h110.16V474.912z"/>
	</g>
</g>
<g>
</g>
<g>
</g>
<g>
</g>
<g>
</g>
<g>
</g>
<g>
</g>
<g>
</g>
<g>
</g>
<g>
</g>
<g>
</g>
<g>
</g>
<g>
</g>
<g>
</g>
<g>
</g>
<g>
</g>
</svg>
