<?xml version="1.0" ?><!DOCTYPE svg  PUBLIC '-//W3C//DTD SVG 1.1//EN'  'http://www.w3.org/Graphics/SVG/1.1/DTD/svg11.dtd'><svg height="512px" style="enable-background:new 0 0 512 512;" version="1.1" viewBox="0 0 512 512" width="512px" xml:space="preserve" xmlns="http://www.w3.org/2000/svg" xmlns:xlink="http://www.w3.org/1999/xlink"><g id="_x31_66_x2C__bulb_x2C__idea_x2C__electricity_x2C__energy_x2C__light"><g><path d="M287.263,386.034h-67.905h-8.707v17.359h9.809h0.081h65.515h0.081h9.81    v-17.359H287.263z M282.749,410.004h-58.903v17.359h9.809h0.081h39.124h0.095h9.795V410.004z M269.557,433.975h-32.515v17.359    h32.515V433.975z M274.526,269.517c7.443-3.978,13.677-7.336,13.677-20.153c0-8.224-6.718-17.871-14.751-29.345    c-6.798-9.728-14.483-20.692-20.141-33.671c-5.671,12.979-13.357,23.943-20.141,33.671c-8.033,11.474-14.768,21.121-14.768,29.345    c0,12.817,6.25,16.176,13.68,20.153c5.924,3.171,12.483,6.69,17.923,14.242v-44.124c0-1.801,1.478-3.278,3.306-3.278    c1.814,0,3.292,1.478,3.292,3.278v44.124C262.058,276.207,268.616,272.688,274.526,269.517z M212.573,472.616    c-1.814,0-3.306-1.478-3.306-3.306c0-1.827,1.492-3.305,3.306-3.305h77.083c1.814,0,3.306,1.478,3.306,3.305    c0,1.828-1.491,3.306-3.306,3.306H212.573z M325.046,466.006c1.829,0,3.306,1.478,3.306,3.305c0,1.828-1.477,3.306-3.306,3.306    h-21.899c-1.828,0-3.306-1.478-3.306-3.306c0-1.827,1.478-3.305,3.306-3.305H325.046z M302.017,479.389    c1.814,0,3.292,1.478,3.292,3.305c0,1.828-1.478,3.306-3.292,3.306h-49.688c-1.811,0-3.302-1.478-3.302-3.306    c0-1.827,1.491-3.305,3.302-3.305H302.017z M189.53,485.999c-1.829,0-3.306-1.478-3.306-3.306c0-1.827,1.478-3.305,3.306-3.305    h21.913c1.814,0,3.306,1.478,3.306,3.305c0,1.828-1.492,3.306-3.306,3.306H189.53z M230.781,485.999    c-1.829,0-3.306-1.478-3.306-3.306c0-1.827,1.478-3.305,3.306-3.305h9.995c1.829,0,3.306,1.478,3.306,3.305    c0,1.828-1.477,3.306-3.306,3.306H230.781z M339.652,54.217c0.898-1.585,2.913-2.122,4.5-1.209    c1.558,0.914,2.095,2.93,1.196,4.515l-17.667,30.581c-0.916,1.585-2.931,2.123-4.503,1.209s-2.108-2.93-1.196-4.488    L339.652,54.217z M406.146,118.307c1.559-0.913,3.587-0.375,4.489,1.184c0.912,1.585,0.375,3.6-1.197,4.514l-30.595,17.682    c-1.584,0.887-3.602,0.35-4.514-1.209c-0.912-1.585-0.361-3.601,1.211-4.514L406.146,118.307z M431.689,207.039    c1.814,0,3.306,1.479,3.306,3.305c0,1.828-1.491,3.306-3.306,3.306h-35.338c-1.814,0-3.306-1.478-3.306-3.306    c0-1.826,1.491-3.305,3.306-3.305H431.689z M166.648,57.522c-0.912-1.585-0.375-3.601,1.197-4.515    c1.572-0.913,3.601-0.376,4.5,1.209l17.67,30.607c0.913,1.559,0.376,3.574-1.196,4.488s-3.587,0.376-4.5-1.209L166.648,57.522z     M102.558,124.004c-1.572-0.914-2.109-2.929-1.193-4.514c0.898-1.559,2.927-2.097,4.485-1.184l30.61,17.656    c1.572,0.913,2.109,2.929,1.207,4.514c-0.912,1.559-2.927,2.096-4.513,1.209L102.558,124.004z M80.308,213.649    c-1.825,0-3.303-1.478-3.303-3.306c0-1.826,1.478-3.305,3.303-3.305h35.337c1.814,0,3.306,1.479,3.306,3.305    c0,1.828-1.492,3.306-3.306,3.306H80.308z M250.22,29.253c0.014-1.827,1.52-3.278,3.334-3.251    c1.814,0.026,3.264,1.504,3.236,3.332l-0.4,30.123c-0.028,1.801-1.52,3.252-3.334,3.225c-1.814,0-3.264-1.504-3.25-3.305    L250.22,29.253z M354.203,320.063c1.249,0,2.551-0.833,2.969-1.854c1.102-2.203-0.579-4.756-2.969-4.756h-6.612    c-1.235,0-2.537,0.806-2.955,1.854c-1.102,2.203,0.565,4.757,2.955,4.757H354.203z M380.619,320.063    c1.234,0,2.551-0.833,2.955-1.854c1.102-2.203-0.565-4.756-2.955-4.756h-6.612c-1.235,0-2.552,0.806-2.955,1.854    c-1.102,2.203,0.565,4.757,2.955,4.757H380.619z M321.189,313.453c-1.25,0-2.552,0.806-2.97,1.854    c-1.102,2.203,0.579,4.757,2.97,4.757h6.598c1.249,0,2.555-0.833,2.969-1.854c1.102-2.203-0.576-4.756-2.969-4.756H321.189z     M151.775,320.063c1.235,0,2.551-0.833,2.955-1.854c1.102-2.203-0.562-4.756-2.955-4.756h-6.612c-1.235,0-2.552,0.806-2.955,1.854    c-1.102,2.203,0.565,4.757,2.955,4.757H151.775z M178.191,320.063c1.235,0,2.537-0.833,2.955-1.854    c1.102-2.203-0.565-4.756-2.955-4.756h-6.612c-1.25,0-2.552,0.806-2.969,1.854c-1.102,2.203,0.579,4.757,2.969,4.757H178.191z     M118.75,313.453c-1.239,0-2.555,0.806-2.958,1.854c-1.102,2.203,0.565,4.757,2.958,4.757h6.608c1.25,0,2.555-0.833,2.969-1.854    c1.102-2.203-0.576-4.756-2.969-4.756H118.75z M354.203,338.551c1.249,0,2.551-0.806,2.969-1.854    c1.102-2.203-0.579-4.756-2.969-4.756h-6.612c-1.235,0-2.537,0.805-2.955,1.854c-1.102,2.203,0.565,4.756,2.955,4.756H354.203z     M380.619,338.551c1.234,0,2.551-0.806,2.955-1.854c1.102-2.203-0.565-4.756-2.955-4.756h-6.612c-1.235,0-2.552,0.805-2.955,1.854    c-1.102,2.203,0.565,4.756,2.955,4.756H380.619z M321.189,331.941c-1.25,0-2.552,0.805-2.97,1.854    c-1.102,2.203,0.579,4.756,2.97,4.756h6.598c1.249,0,2.555-0.806,2.969-1.854c1.102-2.203-0.576-4.756-2.969-4.756H321.189z     M151.775,338.551c1.235,0,2.551-0.806,2.955-1.854c1.102-2.203-0.562-4.756-2.955-4.756h-6.612c-1.235,0-2.552,0.805-2.955,1.854    c-1.102,2.203,0.565,4.756,2.955,4.756H151.775z M178.191,338.551c1.235,0,2.537-0.806,2.955-1.854    c1.102-2.203-0.565-4.756-2.955-4.756h-6.612c-1.25,0-2.552,0.805-2.969,1.854c-1.102,2.203,0.579,4.756,2.969,4.756H178.191z     M118.75,331.941c-1.239,0-2.555,0.805-2.958,1.854c-1.102,2.203,0.565,4.756,2.958,4.756h6.608c1.25,0,2.555-0.806,2.969-1.854    c1.102-2.203-0.576-4.756-2.969-4.756H118.75z M294.814,249.363c0,16.74-7.847,20.933-17.186,25.958    c-7.401,3.95-15.919,8.545-21.025,22.788v64.25l25.932-78.036c0.565-1.72,2.432-2.661,4.151-2.069    c1.72,0.564,2.646,2.419,2.081,4.139l-30.9,93.031h29.396c7.391,0,14.108-3.01,19-7.9c4.864-4.864,7.9-11.582,7.9-18.998    c0-46.167,13.438-62.29,26.482-77.957c11.596-13.92,22.91-27.49,22.91-64.466c0-30.446-12.351-58.017-32.302-77.956    c-19.94-19.939-47.512-32.273-77.942-32.273c-30.445,0-58.005,12.334-77.957,32.273c-19.951,19.939-32.287,47.51-32.287,77.956    c0,36.976,11.287,50.546,22.896,64.466c13.059,15.667,26.497,31.79,26.497,77.957c0,7.309,2.955,14,7.738,18.837l0.162,0.161    c4.864,4.891,11.609,7.9,18.997,7.9h29.399l-30.901-93.031c-0.565-1.72,0.361-3.574,2.081-4.139    c1.72-0.592,3.586,0.35,4.151,2.069l25.918,78.036v-64.25c-5.092-14.243-13.61-18.838-21.025-22.788    c-9.325-5.025-17.172-9.218-17.172-25.958c0-10.239,7.282-20.666,15.975-33.107c7.886-11.286,17.021-24.373,22.426-39.985    c0.575-1.72,2.442-2.634,4.162-2.042c0.997,0.349,1.72,1.102,2.042,2.042c5.401,15.612,14.54,28.699,22.411,39.985    C287.532,228.697,294.814,239.124,294.814,249.363z" style="fill-rule:evenodd;clip-rule:evenodd;"/></g></g><g id="Layer_1"/></svg>