<?xml version="1.0"?>
<svg xmlns="http://www.w3.org/2000/svg" id="Gear-Browser" viewBox="0 0 64 64" width="512" height="512"><path d="M40.194,46.225A1,1,0,0,1,39.22,47H36v2h3.22a1,1,0,0,1,.974.775,8.122,8.122,0,0,0,1.032,2.481,1,1,0,0,1-.139,1.241L38.8,55.78,40.22,57.2,42.5,54.913a1,1,0,0,1,1.241-.139,8.122,8.122,0,0,0,2.481,1.032A1,1,0,0,1,47,56.78V60h2V56.78a1,1,0,0,1,.775-.974,8.122,8.122,0,0,0,2.481-1.032,1,1,0,0,1,1.241.139L55.78,57.2,57.2,55.78,54.913,53.5a1,1,0,0,1-.139-1.241,8.122,8.122,0,0,0,1.032-2.481A1,1,0,0,1,56.78,49H60V47H56.78a1,1,0,0,1-.974-.775,8.122,8.122,0,0,0-1.032-2.481,1,1,0,0,1,.139-1.241L57.2,40.22,55.78,38.8,53.5,41.087a1,1,0,0,1-1.241.139,8.122,8.122,0,0,0-2.481-1.032A1,1,0,0,1,49,39.22V36H47v3.22a1,1,0,0,1-.775.974,8.122,8.122,0,0,0-2.481,1.032,1,1,0,0,1-1.241-.139L40.22,38.8,38.8,40.22,41.087,42.5a1,1,0,0,1,.139,1.241A8.122,8.122,0,0,0,40.194,46.225ZM48,42a6,6,0,1,1-6,6A6.006,6.006,0,0,1,48,42Z"/><circle cx="48" cy="48" r="4"/><path d="M51.81,21.78a.985.985,0,0,1,.97-.78H56V19H52.78a.985.985,0,0,1-.97-.78,8.216,8.216,0,0,0-1.04-2.48,1.013,1.013,0,0,1,.14-1.24l2.29-2.28L51.78,10.8,49.5,13.09a1.015,1.015,0,0,1-1.24.14,8.216,8.216,0,0,0-2.48-1.04.985.985,0,0,1-.78-.97V8H43v3.22a.985.985,0,0,1-.78.97,8.216,8.216,0,0,0-2.48,1.04,1.013,1.013,0,0,1-1.24-.14L36.22,10.8,34.8,12.22l2.29,2.28a1.013,1.013,0,0,1,.14,1.24,8.216,8.216,0,0,0-1.04,2.48.985.985,0,0,1-.97.78H32v2h3.22a.985.985,0,0,1,.97.78,8.216,8.216,0,0,0,1.04,2.48,1.013,1.013,0,0,1-.14,1.24L34.8,27.78l1.42,1.42,2.28-2.29a1.013,1.013,0,0,1,1.24-.14,8.216,8.216,0,0,0,2.48,1.04.985.985,0,0,1,.78.97V32h2V28.78a.985.985,0,0,1,.78-.97,8.216,8.216,0,0,0,2.48-1.04,1.013,1.013,0,0,1,1.24.14l2.28,2.29,1.42-1.42L50.91,25.5a1.013,1.013,0,0,1-.14-1.24A8.216,8.216,0,0,0,51.81,21.78ZM44,24a1,1,0,0,1,0,2,6,6,0,0,1,0-12,1,1,0,0,1,0,2,4,4,0,0,0,0,8Z"/><path d="M45,34v4.46a9.532,9.532,0,0,0-1.62.67l-2.45-2.45a1.008,1.008,0,0,0-1.42,0l-2.83,2.83a1.008,1.008,0,0,0,0,1.42l2.45,2.45A9.532,9.532,0,0,0,38.46,45H35a1,1,0,0,0-1,1v4a1,1,0,0,0,1,1H33.34l-.18,1.03A.758.758,0,0,0,33,52a1,1,0,0,0-1,1v3H30V52.78a.985.985,0,0,0-.78-.97,8.216,8.216,0,0,1-2.48-1.04,1.013,1.013,0,0,0-1.24.14L23.22,53.2,21.8,51.78l.08-.07,2.21-2.21a1.013,1.013,0,0,0,.14-1.24,8.216,8.216,0,0,1-1.04-2.48.985.985,0,0,0-.97-.78H19V43h3.22a.985.985,0,0,0,.97-.78,8.216,8.216,0,0,1,1.04-2.48,1.013,1.013,0,0,0-.14-1.24L21.8,36.22l1.42-1.42,2.28,2.29a1.013,1.013,0,0,0,1.24.14,8.216,8.216,0,0,1,2.48-1.04.985.985,0,0,0,.78-.97V32h2v3.22a.985.985,0,0,0,.78.97,8.216,8.216,0,0,1,2.48,1.04,1,1,0,1,0,1.06-1.7A9.777,9.777,0,0,0,34,34.46V31a1,1,0,0,0-1-1H29a1,1,0,0,0-1,1v3.46a9.532,9.532,0,0,0-1.62.67l-2.45-2.45a1.008,1.008,0,0,0-1.42,0l-2.83,2.83a1.008,1.008,0,0,0,0,1.42l2.45,2.45A9.532,9.532,0,0,0,21.46,41H18a1,1,0,0,0-1,1v4a1,1,0,0,0,1,1h3.46a9.532,9.532,0,0,0,.67,1.62L20.76,50H5a1,1,0,0,1-1-1V12H32.43a1.013,1.013,0,0,0,.25.93l2.45,2.45A9.532,9.532,0,0,0,34.46,17H31a1,1,0,0,0-1,1v4a1,1,0,0,0,1,1h3.46a9.532,9.532,0,0,0,.67,1.62l-2.45,2.45a1.008,1.008,0,0,0,0,1.42l2.83,2.83a1.008,1.008,0,0,0,1.42,0l2.45-2.45a9.532,9.532,0,0,0,1.62.67V33a1,1,0,0,0,1,1Z"/><path d="M35.513,8.683a1,1,0,0,1,1.414,0l2.449,2.448A10.037,10.037,0,0,1,41,10.456V7a1,1,0,0,1,1-1h4a1,1,0,0,1,1,1v3.456a10.037,10.037,0,0,1,1.624.675L50,9.755V5a1,1,0,0,0-1-1H5A1,1,0,0,0,4,5v5H34.2ZM8,8H6A1,1,0,0,1,6,6H8A1,1,0,0,1,8,8Zm6,0H11a1,1,0,0,1,0-2h3a1,1,0,0,1,0,2ZM24,8H17a1,1,0,0,1,0-2h7a1,1,0,0,1,0,2Z"/></svg>
